<svg xmlns="http://www.w3.org/2000/svg" width="12.375" height="11" viewBox="0 0 12.375 11">
  <path id="hotel-solid" d="M12.031,1.375a.344.344,0,0,0,.344-.344V.344A.344.344,0,0,0,12.031,0H.344A.344.344,0,0,0,0,.344v.688a.344.344,0,0,0,.344.344H.687v8.25H.344A.344.344,0,0,0,0,9.969v.688A.344.344,0,0,0,.344,11H5.5V9.281a.345.345,0,0,1,.344-.344h.688a.345.345,0,0,1,.344.344V11h5.156a.344.344,0,0,0,.344-.344V9.969a.344.344,0,0,0-.344-.344h-.344V1.375ZM5.5,2.338a.3.3,0,0,1,.275-.275H6.6a.3.3,0,0,1,.275.275v.825a.3.3,0,0,1-.275.275H5.775A.3.3,0,0,1,5.5,3.163V2.338ZM5.5,4.4a.3.3,0,0,1,.275-.275H6.6a.3.3,0,0,1,.275.275v.825A.3.3,0,0,1,6.6,5.5H5.775A.3.3,0,0,1,5.5,5.225V4.4ZM2.75,2.338a.3.3,0,0,1,.275-.275H3.85a.3.3,0,0,1,.275.275v.825a.3.3,0,0,1-.275.275H3.025a.3.3,0,0,1-.275-.275V2.338ZM3.85,5.5H3.025a.3.3,0,0,1-.275-.275V4.4a.3.3,0,0,1,.275-.275H3.85a.3.3,0,0,1,.275.275v.825A.3.3,0,0,1,3.85,5.5Zm.275,2.75a2.063,2.063,0,0,1,4.125,0Zm5.5-3.025A.3.3,0,0,1,9.35,5.5H8.525a.3.3,0,0,1-.275-.275V4.4a.3.3,0,0,1,.275-.275H9.35a.3.3,0,0,1,.275.275v.825Zm0-2.063a.3.3,0,0,1-.275.275H8.525a.3.3,0,0,1-.275-.275V2.337a.3.3,0,0,1,.275-.275H9.35a.3.3,0,0,1,.275.275Z" fill="#bbb"/>
</svg>
